<svg width="24" height="24" viewBox="0 0 24 24" fill="none" xmlns="http://www.w3.org/2000/svg">
<path d="M21.4141 3.21094H14.3438C14.0201 3.21094 13.7578 3.47324 13.7578 3.79688V4.96875C13.7578 5.29239 14.0201 5.55469 14.3438 5.55469H22V3.79688C22 3.47324 21.7377 3.21094 21.4141 3.21094Z" fill="#0915CC"/>
<path d="M2.58594 14.9297H7.89844V12.5859H2.58594C2.2623 12.5859 2 12.8482 2 13.1719V14.3438C2 14.6674 2.2623 14.9297 2.58594 14.9297Z" fill="#0915CC"/>
<path d="M8.48438 10.2422H13.7578V7.89844H8.48438C8.16074 7.89844 7.89844 8.16074 7.89844 8.48438V9.65625C7.89844 9.97989 8.16074 10.2422 8.48438 10.2422Z" fill="#0915CC"/>
<path d="M14.9297 11.4141H9.07031V16.1016H3.17188V20.2031C3.17188 20.5268 3.43417 20.7891 3.75781 20.7891H9.65701C9.78992 20.7891 9.9187 20.7439 10.0225 20.6609L21.7803 11.2859C21.9191 11.1748 22 11.0067 22 10.8287V6.72656H14.9297V11.4141Z" fill="#0915CC"/>
</svg>
