<svg width="24" height="24" viewBox="0 0 24 24" fill="none" xmlns="http://www.w3.org/2000/svg">
<g clip-path="url(#clip0)">
<path d="M15.4333 3.60745L6.35749 8.25412L2.74999 6.47912L11.6658 2.07662C11.8658 1.97495 12.1058 1.97495 12.3158 2.07662L15.4333 3.60745Z" fill="#0915CC"/>
<path d="M21.24 6.47918L12.005 11.0542L8.54667 9.35001L8.04667 9.09585L17.1325 4.45001L17.6325 4.70335L21.24 6.47918Z" fill="#0915CC"/>
<path d="M11.265 12.3725L11.255 22L2.41 17.3842C2.16 17.2525 2 16.9883 2 16.7042V7.79749L5.74834 9.64415V12.8908C5.74834 13.3067 6.08834 13.6517 6.49834 13.6517C6.90834 13.6517 7.24834 13.3067 7.24834 12.8908V10.395L7.74834 10.6383L11.265 12.3725Z" fill="#0915CC"/>
<path d="M21.99 7.8075L12.765 12.3625L12.755 21.99L22 17.1625L21.99 7.8075Z" fill="#0915CC"/>
</g>
<defs>
<clipPath id="clip0">
<rect width="20" height="20" fill="white" transform="translate(2 2)"/>
</clipPath>
</defs>
</svg>
