<svg width="24" height="24" viewBox="0 0 24 24" fill="none" xmlns="http://www.w3.org/2000/svg">
<path d="M20 12.5C20 12 19.9275 11.5053 18.526 11.1824L17.0885 3.51553C17.0885 2.67856 16.4099 2 15.5729 2H8.21174C7.37473 2 6.69621 2.67856 6.69621 3.51553L5.25901 11.1811C3.85429 11.5042 3.5 11.7557 3.5 12.3977C3.5 13.0397 4.46607 13.5518 6.716 13.8833L4.91255 21.4827C4.85897 21.7085 4.99856 21.935 5.22438 21.9886C5.25699 21.9963 5.28964 22 5.32175 22C5.51198 22 5.68439 21.8699 5.73023 21.6767L6.23289 19.5587L11.9038 17.8074L17.5932 19.5524L18.0974 21.6767C18.1432 21.8699 18.3156 22 18.5058 22C18.538 22 18.5706 21.9963 18.6032 21.9886C18.829 21.935 18.9686 21.7085 18.915 21.4827L17.1099 13.8763C19.3336 13.5443 20 13 20 12.5ZM6.45812 18.6095L7.00507 16.3048L10.4748 17.3691L6.45812 18.6095ZM13.3319 17.3663L16.8188 16.2895L17.3682 18.6043L13.3319 17.3663ZM16.6244 15.47L11.903 16.9281L7.1995 15.4854L7.55382 13.9926C8.83655 14.1402 10.3152 14.2244 11.8899 14.2244C13.4836 14.2244 14.9791 14.1382 16.2726 13.9873L16.6244 15.47Z" fill="#0915CC"/>
</svg>
