<svg width="24" height="24" viewBox="0 0 24 24" fill="none" xmlns="http://www.w3.org/2000/svg">
<path d="M19.4219 2H15.2031C13.7815 2 12.625 3.15652 12.625 4.57812V8.79688C12.625 10.2185 13.7815 11.375 15.2031 11.375H19.4219C20.8435 11.375 22 10.2185 22 8.79688V4.57812C22 3.15652 20.8435 2 19.4219 2Z" fill="#0915CC"/>
<path d="M8.79688 2H4.57812C3.15652 2 2 3.15652 2 4.57812V8.79688C2 10.2185 3.15652 11.375 4.57812 11.375H8.79688C10.2185 11.375 11.375 10.2185 11.375 8.79688V4.57812C11.375 3.15652 10.2185 2 8.79688 2Z" fill="#0915CC"/>
<path d="M8.79688 12.625H4.57812C3.15652 12.625 2 13.7815 2 15.2031V19.4219C2 20.8435 3.15652 22 4.57812 22H8.79688C10.2185 22 11.375 20.8435 11.375 19.4219V15.2031C11.375 13.7815 10.2185 12.625 8.79688 12.625Z" fill="#0915CC"/>
<path d="M17.3125 12.625C14.7278 12.625 12.625 14.7278 12.625 17.3125C12.625 19.8972 14.7278 22 17.3125 22C19.8972 22 22 19.8972 22 17.3125C22 14.7278 19.8972 12.625 17.3125 12.625Z" fill="#0915CC"/>
</svg>
