<svg width="24" height="24" viewBox="0 0 24 24" fill="none" xmlns="http://www.w3.org/2000/svg">
<g clip-path="url(#clip0)">
<path d="M16.5 14.6H7.5C7.22386 14.6 7 14.8238 7 15.1V15.9C7 16.1761 7.22386 16.4 7.5 16.4H16.5C16.7761 16.4 17 16.1761 17 15.9V15.1C17 14.8238 16.7761 14.6 16.5 14.6Z" fill="#0915CC"/>
<path d="M16.5 11H7.5C7.22386 11 7 11.2239 7 11.5V12.3C7 12.5761 7.22386 12.8 7.5 12.8H16.5C16.7761 12.8 17 12.5761 17 12.3V11.5C17 11.2239 16.7761 11 16.5 11Z" fill="#0915CC"/>
<path d="M21.5461 6.38006L12.4552 3.12237C12.4552 3.12237 11.8265 2.95951 11.5448 3.12237L2.45395 6.38006C2.17309 6.54252 2 6.84248 2 7.16701V19.0912C2 19.5932 2.40711 20.0002 2.9091 20.0002H5.63637V19.0911V18.182V17.2729V13.6365V10.0002C5.63637 9.49815 6.04348 9.09112 6.54547 9.09112H17.4546C17.9567 9.09112 18.3637 9.49815 18.3637 10.0002V13.6366V17.273V18.1821V19.0912V20.0002H21.0909C21.593 20.0002 22 19.5932 22 19.0912V7.16701C22 6.84248 21.827 6.54252 21.5461 6.38006Z" fill="#0915CC"/>
<path d="M7.5 18.2001C7.22386 18.2001 7 18.4239 7 18.7001V19.1001V19.5001C7 19.7762 7.22386 20.0001 7.5 20.0001H16.5C16.7761 20.0001 17 19.7762 17 19.5001V19.1001V18.7001C17 18.4239 16.7761 18.2001 16.5 18.2001H7.5Z" fill="#0915CC"/>
</g>
<defs>
<clipPath id="clip0">
<rect width="20" height="17" fill="white" transform="translate(2 3)"/>
</clipPath>
</defs>
</svg>
