<svg width="24" height="24" viewBox="0 0 24 24" fill="none" xmlns="http://www.w3.org/2000/svg">
<g clip-path="url(#clip0)">
<path d="M4.88605 9.09027C5.21575 12.7255 8.28044 15.583 12 15.583C15.7196 15.583 18.7843 12.7255 19.114 9.09027H4.88605Z" fill="#0915CC"/>
<path d="M16.9223 22.2268L15.7321 16.0134C15.3381 16.2084 14.927 16.3739 14.5015 16.5062L14.836 18.2523H9.16365L9.49799 16.506C9.07234 16.3737 8.66131 16.2081 8.26733 16.0132L7.07774 22.2268C7.01015 22.5798 7.24149 22.9207 7.59448 22.9883C7.63582 22.9962 7.67694 23 7.71754 23C8.02348 23 8.29624 22.7832 8.35593 22.4715L8.91452 19.5537H15.0853L15.6442 22.4716C15.7039 22.7832 15.9766 23 16.2826 23C16.3232 23 16.3644 22.9962 16.4057 22.9883C16.7586 22.9206 16.9899 22.5798 16.9223 22.2268Z" fill="#0915CC"/>
<path d="M9.50202 4.36014C9.65465 4.20322 10.0236 3.77289 10.1538 3.1675C10.2613 2.66756 10.2338 1.91819 9.49235 1.1873C9.23648 0.935027 8.82445 0.937949 8.57218 1.19391C8.31991 1.44979 8.32288 1.86182 8.5788 2.11408C8.92667 2.45702 8.91817 2.72334 8.88151 2.89392C8.81904 3.1843 8.6103 3.41036 8.56909 3.45273C8.41647 3.60969 8.04749 4.03998 7.91734 4.64536C7.80984 5.1453 7.83734 5.89472 8.57876 6.62557C8.70556 6.75052 8.87056 6.81283 9.03556 6.81283C9.20365 6.81283 9.37166 6.74812 9.49893 6.61895C9.75124 6.36303 9.74823 5.95105 9.49235 5.69874C9.14444 5.35581 9.15299 5.08949 9.18964 4.9189C9.25212 4.62861 9.46081 4.40255 9.50202 4.36014Z" fill="#0915CC"/>
<path d="M12.4664 4.36014C12.6191 4.20322 12.988 3.77289 13.1182 3.1675C13.2257 2.66756 13.1982 1.91819 12.4568 1.1873C12.2009 0.935027 11.7889 0.937949 11.5366 1.19391C11.2843 1.44979 11.2873 1.86182 11.5432 2.11408C11.8911 2.45702 11.8826 2.72334 11.8459 2.89392C11.7835 3.1843 11.5748 3.41036 11.5335 3.45273C11.3809 3.60969 11.0119 4.03998 10.8818 4.64536C10.7743 5.1453 10.8018 5.89472 11.5432 6.62557C11.67 6.75052 11.835 6.81283 12 6.81283C12.1681 6.81283 12.3361 6.74812 12.4633 6.61895C12.7157 6.36303 12.7127 5.95105 12.4568 5.69874C12.1089 5.35581 12.1174 5.08949 12.1541 4.9189C12.2165 4.62861 12.4252 4.40255 12.4664 4.36014Z" fill="#0915CC"/>
<path d="M15.4309 4.36014C15.5835 4.20322 15.9525 3.77289 16.0827 3.1675C16.1902 2.66756 16.1627 1.91819 15.4212 1.1873C15.1654 0.935027 14.7533 0.937949 14.501 1.19391C14.2488 1.44979 14.2517 1.86182 14.5077 2.11408C14.8555 2.45702 14.847 2.72334 14.8104 2.89392C14.7479 3.1843 14.5391 3.41036 14.4979 3.45273C14.3453 3.60969 13.9763 4.03998 13.8462 4.64536C13.7387 5.1453 13.7662 5.89472 14.5076 6.62557C14.6344 6.75052 14.7994 6.81283 14.9644 6.81283C15.1325 6.81283 15.3005 6.74812 15.4278 6.61895C15.6801 6.36303 15.6771 5.95105 15.4212 5.69874C15.0732 5.35581 15.0818 5.08949 15.1185 4.9189C15.181 4.62861 15.3897 4.40255 15.4309 4.36014Z" fill="#0915CC"/>
</g>
<defs>
<clipPath id="clip0">
<rect width="22" height="22" fill="white" transform="translate(1 1)"/>
</clipPath>
</defs>
</svg>
