<svg width="24" height="24" viewBox="0 0 24 24" fill="none" xmlns="http://www.w3.org/2000/svg">
<g clip-path="url(#clip0)">
<path d="M17 2H6.99999C6.08081 2 5.33331 2.74746 5.33331 3.66668V7.41668C5.33331 7.64699 5.51968 7.83336 5.74999 7.83336H18.25C18.4803 7.83336 18.6667 7.64699 18.6667 7.41668V3.66668C18.6667 2.74746 17.9192 2 17 2ZM9.91667 6.16668H7.41667C7.2482 6.16668 7.09605 6.06535 7.03175 5.90953C6.96706 5.75367 7.00284 5.57465 7.1221 5.45543L7.53878 5.03875C7.70156 4.87598 7.96523 4.87598 8.12796 5.03875C8.20933 5.12012 8.25003 5.22676 8.25003 5.33336H9.91671C10.147 5.33336 10.3334 5.51973 10.3334 5.75004C10.3334 5.98035 10.147 6.16668 9.91667 6.16668Z" fill="#0915CC"/>
<path d="M18.25 8.66669H5.74999C5.51968 8.66669 5.33331 8.85305 5.33331 9.08337V19.5C5.33331 20.4192 6.08077 21.1667 6.99999 21.1667V21.5834C6.99999 21.8137 7.18636 22 7.41667 22H8.24999C8.48031 22 8.66667 21.8137 8.66667 21.5834V21.1667H15.3334V21.5834C15.3334 21.8137 15.5197 22 15.75 22H16.5834C16.8137 22 17 21.8137 17 21.5834V21.1667C17.9192 21.1667 18.6667 20.4192 18.6667 19.5V9.08333C18.6667 8.85305 18.4803 8.66669 18.25 8.66669ZM9.91667 11.1667H7.41667C7.2482 11.1667 7.09605 11.0654 7.03175 10.9095C6.96706 10.7537 7.00284 10.5747 7.1221 10.4554L7.53878 10.0388C7.70156 9.87598 7.96523 9.87598 8.12796 10.0388C8.20933 10.1201 8.25003 10.2268 8.25003 10.3334H9.91671C10.147 10.3334 10.3334 10.5197 10.3334 10.75C10.3334 10.9804 10.147 11.1667 9.91667 11.1667Z" fill="#0915CC"/>
</g>
<defs>
<clipPath id="clip0">
<rect width="20" height="20" fill="white" transform="translate(2 2)"/>
</clipPath>
</defs>
</svg>
