<svg width="24" height="24" viewBox="0 0 24 24" fill="none" xmlns="http://www.w3.org/2000/svg">
<path d="M5.58334 10.1667V12.4583H18.4167V10.1667C18.4167 8.9035 19.4443 7.875 20.7084 7.875H21.1667V6.5C21.1667 5.7419 20.5498 5.125 19.7917 5.125H4.20834C3.45025 5.125 2.83334 5.7419 2.83334 6.5V7.875H3.29169C4.55575 7.875 5.58334 8.9035 5.58334 10.1667Z" fill="#0915CC"/>
<path d="M21.625 8.79163H20.7083C19.9503 8.79163 19.3333 9.40853 19.3333 10.1666V12.9166C19.3333 13.1696 19.128 13.375 18.875 13.375H5.125C4.872 13.375 4.66665 13.1696 4.66665 12.9166V10.1666C4.66665 9.40853 4.04975 8.79163 3.29165 8.79163H2.375C1.6169 8.79163 1 9.40853 1 10.1666V15.6666C1 16.4247 1.6169 17.0416 2.375 17.0416H2.83335V18.4166C2.83335 18.6696 3.0387 18.875 3.2917 18.875H6.0417C6.2947 18.875 6.50004 18.6696 6.50004 18.4166V17.0416H17.5V18.4166C17.5 18.6696 17.7054 18.875 17.9584 18.875H20.7084C20.9614 18.875 21.1667 18.6696 21.1667 18.4166V17.0416H21.625C22.3831 17.0416 23 16.4247 23 15.6666V10.1666C23 9.40857 22.3831 8.79163 21.625 8.79163Z" fill="#0915CC"/>
</svg>
