<svg width="24" height="24" viewBox="0 0 24 24" fill="none" xmlns="http://www.w3.org/2000/svg">
<path d="M18.1719 6.125H5.82812C5.61238 6.125 5.4375 5.95012 5.4375 5.73438V4.71875C5.4375 3.76949 6.20699 3 7.15625 3H16.8438C17.793 3 18.5625 3.76949 18.5625 4.71875V5.73438C18.5625 5.95012 18.3876 6.125 18.1719 6.125Z" fill="#0915CC"/>
<path d="M19.8906 7.375H4.10938C2.94625 7.375 2 8.32125 2 9.48438V16.8281C2 17.9913 2.94625 18.9375 4.10938 18.9375H5.4375V15.8125C5.4375 14.2617 6.69918 13 8.25 13H15.75C17.3008 13 18.5625 14.2617 18.5625 15.8125V18.9375H19.8906C21.0537 18.9375 22 17.9913 22 16.8281V9.48438C22 8.32125 21.0537 7.375 19.8906 7.375ZM5.75078 12.0625C5.23301 12.0625 4.81309 11.6428 4.81309 11.125C4.81309 10.6072 5.23262 10.1875 5.75039 10.1875H5.75078C6.26855 10.1875 6.68828 10.6072 6.68828 11.125C6.68828 11.6428 6.26855 12.0625 5.75078 12.0625Z" fill="#0915CC"/>
<path d="M15.75 14.875H8.25C7.73223 14.875 7.3125 15.2947 7.3125 15.8125V18.9375V20.1875C7.3125 20.7053 7.73223 21.125 8.25 21.125H15.75C16.2678 21.125 16.6875 20.7053 16.6875 20.1875V18.9375V15.8125C16.6875 15.2947 16.2678 14.875 15.75 14.875Z" fill="#0915CC"/>
</svg>
