<svg width="24" height="24" viewBox="0 0 24 24" fill="none" xmlns="http://www.w3.org/2000/svg">
<g clip-path="url(#clip0)">
<path d="M21.7248 7.98771L12.3107 2.08927C12.1207 1.97024 11.8793 1.97024 11.6893 2.08927L2.27523 7.98771C2.10414 8.0947 2 8.28239 2 8.48438C2 8.68638 2.10414 8.87407 2.27523 8.98106L11.6893 14.8404C11.7843 14.8999 11.8924 14.9297 12 14.9297C12.1076 14.9297 12.2157 14.8999 12.3107 14.8404L21.7248 8.98106C21.8959 8.87407 22 8.68638 22 8.48438C22 8.28239 21.8959 8.0947 21.7248 7.98771Z" fill="#0915CC"/>
<path d="M21.7248 11.5029L20.8124 10.9326L12.9315 15.8339C12.6529 16.0084 12.3302 16.1011 12 16.1011C11.6698 16.1011 11.3471 16.0084 11.0673 15.8334L3.18746 10.9328L2.27523 11.5029C2.10414 11.6099 2 11.7976 2 11.9996C2 12.2016 2.10414 12.3893 2.27523 12.4962L11.6893 18.3556C11.7843 18.4151 11.8924 18.4449 12 18.4449C12.1076 18.4449 12.2157 18.4151 12.3107 18.3556L21.7248 12.4962C21.8959 12.3893 22 12.2016 22 11.9996C22 11.7976 21.8959 11.6099 21.7248 11.5029Z" fill="#0915CC"/>
<path d="M21.7248 15.0185L20.8124 14.4482L12.9315 19.3496C12.6529 19.5241 12.3302 19.6168 12 19.6168C11.6698 19.6168 11.3471 19.5241 11.0673 19.349L3.18746 14.4484L2.27523 15.0185C2.10414 15.1255 2 15.3132 2 15.5152C2 15.7172 2.10414 15.9049 2.27523 16.0119L11.6893 21.9103C11.7843 21.9698 11.8924 21.9996 12 21.9996C12.1076 21.9996 12.2157 21.9698 12.3107 21.9103L21.7248 16.0119C21.8959 15.9049 22 15.7172 22 15.5152C22 15.3132 21.8959 15.1255 21.7248 15.0185Z" fill="#0915CC"/>
</g>
<defs>
<clipPath id="clip0">
<rect width="20" height="20" fill="white" transform="translate(2 2)"/>
</clipPath>
</defs>
</svg>
