<svg width="24" height="24" viewBox="0 0 24 24" fill="none" xmlns="http://www.w3.org/2000/svg">
<path d="M11.5066 4.68884H2.625C2.27984 4.68884 2 4.96869 2 5.31384V14.1954C2 14.5406 2.27984 14.8204 2.625 14.8204H6.41676L9.88277 8.81716C10.3243 8.05259 11.2626 7.67959 12.1316 7.98814V5.31384C12.1316 4.96869 11.8518 4.68884 11.5066 4.68884Z" fill="#0915CC"/>
<path d="M17.4893 18.867C13.9046 12.6578 15.0206 14.5907 12.0478 9.4421C11.8078 9.0264 11.2058 9.0257 10.9653 9.44214L5.5239 18.867C5.28386 19.2827 5.58429 19.8045 6.06515 19.8045H16.948C17.4281 19.8045 17.7297 19.2835 17.4893 18.867Z" fill="#0915CC"/>
<path d="M16.4408 4.1955C15.3113 4.1955 14.2596 4.53428 13.3816 5.11534V9.25225C16.0453 13.8655 15.3072 12.5873 16.8718 15.2973C19.7365 15.0766 22 12.675 22 9.75468C22 6.68936 19.5061 4.1955 16.4408 4.1955Z" fill="#0915CC"/>
</svg>
