<svg width="24" height="24" viewBox="0 0 24 24" fill="none" xmlns="http://www.w3.org/2000/svg">
<g clip-path="url(#clip0)">
<path fill-rule="evenodd" clip-rule="evenodd" d="M11.1667 16.5833C11.1667 19.57 13.5967 22 16.5833 22C19.57 22 22 19.57 22 16.5833C22 13.5966 19.57 11.1666 16.5833 11.1666C13.5967 11.1666 11.1667 13.5966 11.1667 16.5833ZM16.1333 18.875C16.1333 19.22 16.4133 19.5 16.7583 19.5C17.1033 19.5 17.3833 19.22 17.3833 18.875V14.2917C17.3833 13.9467 17.1033 13.6667 16.7583 13.6667H15.925C15.58 13.6667 15.3 13.9467 15.3 14.2917C15.3 14.6367 15.58 14.9167 15.925 14.9167H16.1333V18.875Z" fill="#0915CC"/>
<path fill-rule="evenodd" clip-rule="evenodd" d="M5.56918 18.6667C5.44334 18.6667 5.31667 18.6284 5.20917 18.5525C5.01334 18.4142 4.91417 18.1767 4.95167 17.9409L5.81084 12.6742L2.17751 8.95002C2.01417 8.78252 1.95751 8.53752 2.03251 8.31502C2.10667 8.09252 2.29834 7.93169 2.53084 7.89585L7.52751 7.13169L9.76751 2.35835C9.97251 1.92002 10.6933 1.92002 10.8983 2.35835L13.1383 7.13169L18.135 7.89585C18.3667 7.93085 18.5592 8.09252 18.6333 8.31502C18.7083 8.53752 18.6517 8.78252 18.4883 8.95002L17.4029 10.0625C17.1077 10.0213 16.8063 10 16.5 10C13.0044 10 10.1442 12.774 10.0053 16.2362C9.95321 16.3078 9.88503 16.3694 9.80251 16.415L5.87168 18.5875C5.77751 18.6409 5.67334 18.6667 5.56918 18.6667Z" fill="#0915CC"/>
</g>
<defs>
<clipPath id="clip0">
<rect width="20" height="20" fill="white" transform="translate(2 2)"/>
</clipPath>
</defs>
</svg>
