<svg width="24" height="24" viewBox="0 0 24 24" fill="none" xmlns="http://www.w3.org/2000/svg">
<path d="M3.50463 9.58437C3.50463 8.43618 4.43875 7.50201 5.58699 7.50201H10.2614C10.9872 7.50201 11.6272 7.87557 12 8.44023C12.3729 7.87552 13.0128 7.50201 13.7386 7.50201H18.4131C19.5613 7.50201 20.4954 8.43618 20.4954 9.58437V9.68026H21.0167V7.64966C21.0167 6.38958 19.9915 5.36444 18.7315 5.36444H5.26851C4.00843 5.36444 2.98329 6.38958 2.98329 7.64966V9.68026H3.50459V9.58437H3.50463Z" fill="#0915CC"/>
<path d="M22.1248 10.6526H1.87519C1.39262 10.6526 1.00002 11.0452 1.00002 11.5278V16.6084C1.00002 17.0909 1.39262 17.4835 1.87519 17.4835H2.2395L1.80904 18.6984C1.71934 18.9515 1.85186 19.2294 2.10493 19.3191C2.15864 19.3381 2.21344 19.3471 2.26733 19.3471C2.46746 19.3471 2.65497 19.2226 2.72562 19.0231L3.27115 17.4835H20.7289L21.2744 19.0231C21.3451 19.2226 21.5325 19.3471 21.7327 19.3471C21.7866 19.3471 21.8414 19.3381 21.8951 19.3191C22.1482 19.2294 22.2807 18.9515 22.191 18.6984L21.7605 17.4835H22.1248C22.6074 17.4835 23 17.0909 23 16.6084V11.5278C23 11.0452 22.6074 10.6526 22.1248 10.6526Z" fill="#0915CC"/>
<path d="M13.7386 8.47443C13.1266 8.47443 12.6287 8.97231 12.6287 9.5843V9.6802H19.523V9.5843C19.523 8.97231 19.0251 8.47443 18.4131 8.47443H13.7386Z" fill="#0915CC"/>
<path d="M5.58697 8.47443C4.97493 8.47443 4.47705 8.97235 4.47705 9.58435V9.6802H11.3713V9.5843C11.3713 8.97231 10.8734 8.47443 10.2614 8.47443H5.58697Z" fill="#0915CC"/>
</svg>
